<mxfile host="Electron" modified="2023-05-15T08:03:26.255Z" agent="Mozilla/5.0 (Windows NT 10.0; Win64; x64) AppleWebKit/537.36 (KHTML, like Gecko) draw.io/21.1.2 Chrome/106.0.5249.199 Electron/21.4.3 Safari/537.36" etag="x-l9DUs_qJc9dXqx53q5" version="21.1.2" type="device">
  <diagram name="Page-1" id="svF-_EYXpKjBa1wAlrEl">
    <mxGraphModel dx="1219" dy="713" grid="0" gridSize="10" guides="1" tooltips="1" connect="1" arrows="1" fold="1" page="1" pageScale="1" pageWidth="1169" pageHeight="827" math="0" shadow="0">
      <root>
        <mxCell id="0" />
        <mxCell id="1" parent="0" />
        <mxCell id="yYLDRi-NIoMHJQzlc312-1" value="Container" style="swimlane;fontStyle=1;align=center;verticalAlign=top;childLayout=stackLayout;horizontal=1;startSize=26;horizontalStack=0;resizeParent=1;resizeParentMax=0;resizeLast=0;collapsible=1;marginBottom=0;whiteSpace=wrap;html=1;labelBackgroundColor=none;fillColor=#A8DADC;strokeColor=#457B9D;fontColor=#1D3557;" parent="1" vertex="1">
          <mxGeometry x="454" y="454" width="117" height="164" as="geometry" />
        </mxCell>
        <mxCell id="yYLDRi-NIoMHJQzlc312-2" value="&lt;font style=&quot;font-size: 10px;&quot;&gt;- capacity: double&lt;/font&gt;" style="text;strokeColor=none;fillColor=none;align=left;verticalAlign=top;spacingLeft=4;spacingRight=4;overflow=hidden;rotatable=0;points=[[0,0.5],[1,0.5]];portConstraint=eastwest;whiteSpace=wrap;html=1;labelBackgroundColor=none;fontColor=#1D3557;" parent="yYLDRi-NIoMHJQzlc312-1" vertex="1">
          <mxGeometry y="26" width="117" height="26" as="geometry" />
        </mxCell>
        <mxCell id="yYLDRi-NIoMHJQzlc312-5" value="&lt;font style=&quot;font-size: 10px;&quot;&gt;- level: double&lt;/font&gt;" style="text;strokeColor=none;fillColor=none;align=left;verticalAlign=top;spacingLeft=4;spacingRight=4;overflow=hidden;rotatable=0;points=[[0,0.5],[1,0.5]];portConstraint=eastwest;whiteSpace=wrap;html=1;labelBackgroundColor=none;fontColor=#1D3557;" parent="yYLDRi-NIoMHJQzlc312-1" vertex="1">
          <mxGeometry y="52" width="117" height="26" as="geometry" />
        </mxCell>
        <mxCell id="yYLDRi-NIoMHJQzlc312-3" value="" style="line;strokeWidth=1;fillColor=none;align=left;verticalAlign=middle;spacingTop=-1;spacingLeft=3;spacingRight=3;rotatable=0;labelPosition=right;points=[];portConstraint=eastwest;strokeColor=#457B9D;labelBackgroundColor=none;fontColor=#1D3557;" parent="yYLDRi-NIoMHJQzlc312-1" vertex="1">
          <mxGeometry y="78" width="117" height="8" as="geometry" />
        </mxCell>
        <mxCell id="yYLDRi-NIoMHJQzlc312-4" value="&lt;font style=&quot;font-size: 10px;&quot;&gt;+ fill(): void&lt;/font&gt;" style="text;strokeColor=none;fillColor=none;align=left;verticalAlign=top;spacingLeft=4;spacingRight=4;overflow=hidden;rotatable=0;points=[[0,0.5],[1,0.5]];portConstraint=eastwest;whiteSpace=wrap;html=1;labelBackgroundColor=none;fontColor=#1D3557;" parent="yYLDRi-NIoMHJQzlc312-1" vertex="1">
          <mxGeometry y="86" width="117" height="26" as="geometry" />
        </mxCell>
        <mxCell id="yYLDRi-NIoMHJQzlc312-6" value="&lt;font style=&quot;font-size: 10px;&quot;&gt;+ drain(double): void&lt;/font&gt;" style="text;strokeColor=none;fillColor=none;align=left;verticalAlign=top;spacingLeft=4;spacingRight=4;overflow=hidden;rotatable=0;points=[[0,0.5],[1,0.5]];portConstraint=eastwest;whiteSpace=wrap;html=1;labelBackgroundColor=none;fontColor=#1D3557;" parent="yYLDRi-NIoMHJQzlc312-1" vertex="1">
          <mxGeometry y="112" width="117" height="26" as="geometry" />
        </mxCell>
        <mxCell id="KnSmM1IW0QGNPEkn29na-4" value="&lt;font style=&quot;font-size: 10px;&quot;&gt;+ getInfo(): String&lt;/font&gt;" style="text;strokeColor=none;fillColor=none;align=left;verticalAlign=top;spacingLeft=4;spacingRight=4;overflow=hidden;rotatable=0;points=[[0,0.5],[1,0.5]];portConstraint=eastwest;whiteSpace=wrap;html=1;labelBackgroundColor=none;fontColor=#1D3557;" parent="yYLDRi-NIoMHJQzlc312-1" vertex="1">
          <mxGeometry y="138" width="117" height="26" as="geometry" />
        </mxCell>
        <mxCell id="yYLDRi-NIoMHJQzlc312-7" value="WaterContainer" style="swimlane;fontStyle=1;align=center;verticalAlign=top;childLayout=stackLayout;horizontal=1;startSize=26;horizontalStack=0;resizeParent=1;resizeParentMax=0;resizeLast=0;collapsible=1;marginBottom=0;whiteSpace=wrap;html=1;labelBackgroundColor=none;fillColor=#A8DADC;strokeColor=#457B9D;fontColor=#1D3557;" parent="1" vertex="1">
          <mxGeometry x="563" y="672" width="117" height="34" as="geometry" />
        </mxCell>
        <mxCell id="yYLDRi-NIoMHJQzlc312-9" value="" style="line;strokeWidth=1;fillColor=none;align=left;verticalAlign=middle;spacingTop=-1;spacingLeft=3;spacingRight=3;rotatable=0;labelPosition=right;points=[];portConstraint=eastwest;strokeColor=#457B9D;labelBackgroundColor=none;fontColor=#1D3557;" parent="yYLDRi-NIoMHJQzlc312-7" vertex="1">
          <mxGeometry y="26" width="117" height="8" as="geometry" />
        </mxCell>
        <mxCell id="yYLDRi-NIoMHJQzlc312-11" value="BeansContainer" style="swimlane;fontStyle=1;align=center;verticalAlign=top;childLayout=stackLayout;horizontal=1;startSize=26;horizontalStack=0;resizeParent=1;resizeParentMax=0;resizeLast=0;collapsible=1;marginBottom=0;whiteSpace=wrap;html=1;labelBackgroundColor=none;fillColor=#A8DADC;strokeColor=#457B9D;fontColor=#1D3557;" parent="1" vertex="1">
          <mxGeometry x="333" y="672" width="117" height="60" as="geometry" />
        </mxCell>
        <mxCell id="yYLDRi-NIoMHJQzlc312-12" value="&lt;font style=&quot;font-size: 10px;&quot;&gt;- ratio: double&lt;/font&gt;" style="text;strokeColor=none;fillColor=none;align=left;verticalAlign=top;spacingLeft=4;spacingRight=4;overflow=hidden;rotatable=0;points=[[0,0.5],[1,0.5]];portConstraint=eastwest;whiteSpace=wrap;html=1;labelBackgroundColor=none;fontColor=#1D3557;" parent="yYLDRi-NIoMHJQzlc312-11" vertex="1">
          <mxGeometry y="26" width="117" height="26" as="geometry" />
        </mxCell>
        <mxCell id="yYLDRi-NIoMHJQzlc312-13" value="" style="line;strokeWidth=1;fillColor=none;align=left;verticalAlign=middle;spacingTop=-1;spacingLeft=3;spacingRight=3;rotatable=0;labelPosition=right;points=[];portConstraint=eastwest;strokeColor=#457B9D;labelBackgroundColor=none;fontColor=#1D3557;" parent="yYLDRi-NIoMHJQzlc312-11" vertex="1">
          <mxGeometry y="52" width="117" height="8" as="geometry" />
        </mxCell>
        <mxCell id="yYLDRi-NIoMHJQzlc312-15" value="WasteTray" style="swimlane;fontStyle=1;align=center;verticalAlign=top;childLayout=stackLayout;horizontal=1;startSize=26;horizontalStack=0;resizeParent=1;resizeParentMax=0;resizeLast=0;collapsible=1;marginBottom=0;whiteSpace=wrap;html=1;labelBackgroundColor=none;fillColor=#A8DADC;strokeColor=#457B9D;fontColor=#1D3557;" parent="1" vertex="1">
          <mxGeometry x="181" y="109" width="118" height="164" as="geometry" />
        </mxCell>
        <mxCell id="yYLDRi-NIoMHJQzlc312-16" value="&lt;font style=&quot;font-size: 10px;&quot;&gt;- capacity: double&lt;/font&gt;" style="text;strokeColor=none;fillColor=none;align=left;verticalAlign=top;spacingLeft=4;spacingRight=4;overflow=hidden;rotatable=0;points=[[0,0.5],[1,0.5]];portConstraint=eastwest;whiteSpace=wrap;html=1;labelBackgroundColor=none;fontColor=#1D3557;" parent="yYLDRi-NIoMHJQzlc312-15" vertex="1">
          <mxGeometry y="26" width="118" height="26" as="geometry" />
        </mxCell>
        <mxCell id="yYLDRi-NIoMHJQzlc312-19" value="&lt;font style=&quot;font-size: 10px;&quot;&gt;- level: double&lt;/font&gt;" style="text;strokeColor=none;fillColor=none;align=left;verticalAlign=top;spacingLeft=4;spacingRight=4;overflow=hidden;rotatable=0;points=[[0,0.5],[1,0.5]];portConstraint=eastwest;whiteSpace=wrap;html=1;labelBackgroundColor=none;fontColor=#1D3557;" parent="yYLDRi-NIoMHJQzlc312-15" vertex="1">
          <mxGeometry y="52" width="118" height="26" as="geometry" />
        </mxCell>
        <mxCell id="yYLDRi-NIoMHJQzlc312-17" value="" style="line;strokeWidth=1;fillColor=none;align=left;verticalAlign=middle;spacingTop=-1;spacingLeft=3;spacingRight=3;rotatable=0;labelPosition=right;points=[];portConstraint=eastwest;strokeColor=#457B9D;labelBackgroundColor=none;fontColor=#1D3557;" parent="yYLDRi-NIoMHJQzlc312-15" vertex="1">
          <mxGeometry y="78" width="118" height="8" as="geometry" />
        </mxCell>
        <mxCell id="yYLDRi-NIoMHJQzlc312-18" value="&lt;font style=&quot;font-size: 10px;&quot;&gt;+ clean(): void&lt;/font&gt;" style="text;strokeColor=none;fillColor=none;align=left;verticalAlign=top;spacingLeft=4;spacingRight=4;overflow=hidden;rotatable=0;points=[[0,0.5],[1,0.5]];portConstraint=eastwest;whiteSpace=wrap;html=1;labelBackgroundColor=none;fontColor=#1D3557;" parent="yYLDRi-NIoMHJQzlc312-15" vertex="1">
          <mxGeometry y="86" width="118" height="26" as="geometry" />
        </mxCell>
        <mxCell id="KnSmM1IW0QGNPEkn29na-9" value="&lt;font style=&quot;font-size: 10px;&quot;&gt;+ fill(double): void&lt;/font&gt;" style="text;strokeColor=none;fillColor=none;align=left;verticalAlign=top;spacingLeft=4;spacingRight=4;overflow=hidden;rotatable=0;points=[[0,0.5],[1,0.5]];portConstraint=eastwest;whiteSpace=wrap;html=1;labelBackgroundColor=none;fontColor=#1D3557;" parent="yYLDRi-NIoMHJQzlc312-15" vertex="1">
          <mxGeometry y="112" width="118" height="26" as="geometry" />
        </mxCell>
        <mxCell id="KnSmM1IW0QGNPEkn29na-11" value="&lt;font style=&quot;font-size: 10px;&quot;&gt;+ getInfo(): String&lt;/font&gt;" style="text;strokeColor=none;fillColor=none;align=left;verticalAlign=top;spacingLeft=4;spacingRight=4;overflow=hidden;rotatable=0;points=[[0,0.5],[1,0.5]];portConstraint=eastwest;whiteSpace=wrap;html=1;labelBackgroundColor=none;fontColor=#1D3557;" parent="yYLDRi-NIoMHJQzlc312-15" vertex="1">
          <mxGeometry y="138" width="118" height="26" as="geometry" />
        </mxCell>
        <mxCell id="yYLDRi-NIoMHJQzlc312-21" value="Grinder" style="swimlane;fontStyle=1;align=center;verticalAlign=top;childLayout=stackLayout;horizontal=1;startSize=26;horizontalStack=0;resizeParent=1;resizeParentMax=0;resizeLast=0;collapsible=1;marginBottom=0;whiteSpace=wrap;html=1;labelBackgroundColor=none;fillColor=#A8DADC;strokeColor=#457B9D;fontColor=#1D3557;" parent="1" vertex="1">
          <mxGeometry x="181" y="312" width="118" height="112" as="geometry" />
        </mxCell>
        <mxCell id="yYLDRi-NIoMHJQzlc312-22" value="&lt;font style=&quot;font-size: 10px;&quot;&gt;- level: int&lt;/font&gt;" style="text;strokeColor=none;fillColor=none;align=left;verticalAlign=top;spacingLeft=4;spacingRight=4;overflow=hidden;rotatable=0;points=[[0,0.5],[1,0.5]];portConstraint=eastwest;whiteSpace=wrap;html=1;labelBackgroundColor=none;fontColor=#1D3557;" parent="yYLDRi-NIoMHJQzlc312-21" vertex="1">
          <mxGeometry y="26" width="118" height="26" as="geometry" />
        </mxCell>
        <mxCell id="yYLDRi-NIoMHJQzlc312-23" value="" style="line;strokeWidth=1;fillColor=none;align=left;verticalAlign=middle;spacingTop=-1;spacingLeft=3;spacingRight=3;rotatable=0;labelPosition=right;points=[];portConstraint=eastwest;strokeColor=#457B9D;labelBackgroundColor=none;fontColor=#1D3557;" parent="yYLDRi-NIoMHJQzlc312-21" vertex="1">
          <mxGeometry y="52" width="118" height="8" as="geometry" />
        </mxCell>
        <mxCell id="KnSmM1IW0QGNPEkn29na-6" value="&lt;font style=&quot;font-size: 10px;&quot;&gt;+ grind(int): void&lt;/font&gt;" style="text;strokeColor=none;fillColor=none;align=left;verticalAlign=top;spacingLeft=4;spacingRight=4;overflow=hidden;rotatable=0;points=[[0,0.5],[1,0.5]];portConstraint=eastwest;whiteSpace=wrap;html=1;labelBackgroundColor=none;fontColor=#1D3557;" parent="yYLDRi-NIoMHJQzlc312-21" vertex="1">
          <mxGeometry y="60" width="118" height="26" as="geometry" />
        </mxCell>
        <mxCell id="yYLDRi-NIoMHJQzlc312-24" value="&lt;font style=&quot;font-size: 10px;&quot;&gt;+ getInfo(): String&lt;/font&gt;" style="text;strokeColor=none;fillColor=none;align=left;verticalAlign=top;spacingLeft=4;spacingRight=4;overflow=hidden;rotatable=0;points=[[0,0.5],[1,0.5]];portConstraint=eastwest;whiteSpace=wrap;html=1;labelBackgroundColor=none;fontColor=#1D3557;" parent="yYLDRi-NIoMHJQzlc312-21" vertex="1">
          <mxGeometry y="86" width="118" height="26" as="geometry" />
        </mxCell>
        <mxCell id="yYLDRi-NIoMHJQzlc312-25" value="«interface»&lt;br&gt;&lt;b&gt;Logger&lt;/b&gt;" style="html=1;whiteSpace=wrap;labelBackgroundColor=none;fillColor=#A8DADC;strokeColor=#457B9D;fontColor=#1D3557;" parent="1" vertex="1">
          <mxGeometry x="793" y="71" width="110" height="50" as="geometry" />
        </mxCell>
        <mxCell id="yYLDRi-NIoMHJQzlc312-26" value="CoffeeMachine" style="swimlane;fontStyle=1;align=center;verticalAlign=top;childLayout=stackLayout;horizontal=1;startSize=26;horizontalStack=0;resizeParent=1;resizeParentMax=0;resizeLast=0;collapsible=1;marginBottom=0;whiteSpace=wrap;html=1;labelBackgroundColor=none;fillColor=#A8DADC;strokeColor=#457B9D;fontColor=#1D3557;" parent="1" vertex="1">
          <mxGeometry x="401" y="49" width="221" height="320" as="geometry" />
        </mxCell>
        <mxCell id="yYLDRi-NIoMHJQzlc312-27" value="&lt;font style=&quot;font-size: 10px;&quot;&gt;- waterContainer: WaterContainer&lt;/font&gt;" style="text;strokeColor=none;fillColor=none;align=left;verticalAlign=top;spacingLeft=4;spacingRight=4;overflow=hidden;rotatable=0;points=[[0,0.5],[1,0.5]];portConstraint=eastwest;whiteSpace=wrap;html=1;labelBackgroundColor=none;fontColor=#1D3557;" parent="yYLDRi-NIoMHJQzlc312-26" vertex="1">
          <mxGeometry y="26" width="221" height="26" as="geometry" />
        </mxCell>
        <mxCell id="yYLDRi-NIoMHJQzlc312-30" value="&lt;font style=&quot;font-size: 10px;&quot;&gt;- beansContainer: BeansContainer&lt;/font&gt;" style="text;strokeColor=none;fillColor=none;align=left;verticalAlign=top;spacingLeft=4;spacingRight=4;overflow=hidden;rotatable=0;points=[[0,0.5],[1,0.5]];portConstraint=eastwest;whiteSpace=wrap;html=1;labelBackgroundColor=none;fontColor=#1D3557;" parent="yYLDRi-NIoMHJQzlc312-26" vertex="1">
          <mxGeometry y="52" width="221" height="26" as="geometry" />
        </mxCell>
        <mxCell id="yYLDRi-NIoMHJQzlc312-31" value="&lt;font style=&quot;font-size: 10px;&quot;&gt;- wasteTray: WasteTray&lt;/font&gt;" style="text;strokeColor=none;fillColor=none;align=left;verticalAlign=top;spacingLeft=4;spacingRight=4;overflow=hidden;rotatable=0;points=[[0,0.5],[1,0.5]];portConstraint=eastwest;whiteSpace=wrap;html=1;labelBackgroundColor=none;fontColor=#1D3557;" parent="yYLDRi-NIoMHJQzlc312-26" vertex="1">
          <mxGeometry y="78" width="221" height="26" as="geometry" />
        </mxCell>
        <mxCell id="yYLDRi-NIoMHJQzlc312-32" value="&lt;font style=&quot;font-size: 10px;&quot;&gt;- grinder: Grinder&lt;/font&gt;" style="text;strokeColor=none;fillColor=none;align=left;verticalAlign=top;spacingLeft=4;spacingRight=4;overflow=hidden;rotatable=0;points=[[0,0.5],[1,0.5]];portConstraint=eastwest;whiteSpace=wrap;html=1;labelBackgroundColor=none;fontColor=#1D3557;" parent="yYLDRi-NIoMHJQzlc312-26" vertex="1">
          <mxGeometry y="104" width="221" height="26" as="geometry" />
        </mxCell>
        <mxCell id="yYLDRi-NIoMHJQzlc312-34" value="&lt;font style=&quot;font-size: 10px;&quot;&gt;- counter: int&lt;/font&gt;" style="text;strokeColor=none;fillColor=none;align=left;verticalAlign=top;spacingLeft=4;spacingRight=4;overflow=hidden;rotatable=0;points=[[0,0.5],[1,0.5]];portConstraint=eastwest;whiteSpace=wrap;html=1;labelBackgroundColor=none;fontColor=#1D3557;" parent="yYLDRi-NIoMHJQzlc312-26" vertex="1">
          <mxGeometry y="130" width="221" height="26" as="geometry" />
        </mxCell>
        <mxCell id="KnSmM1IW0QGNPEkn29na-1" value="&lt;font style=&quot;font-size: 10px;&quot;&gt;- FileLogger: logger&lt;/font&gt;" style="text;strokeColor=none;fillColor=none;align=left;verticalAlign=top;spacingLeft=4;spacingRight=4;overflow=hidden;rotatable=0;points=[[0,0.5],[1,0.5]];portConstraint=eastwest;whiteSpace=wrap;html=1;labelBackgroundColor=none;fontColor=#1D3557;" parent="yYLDRi-NIoMHJQzlc312-26" vertex="1">
          <mxGeometry y="156" width="221" height="26" as="geometry" />
        </mxCell>
        <mxCell id="yYLDRi-NIoMHJQzlc312-28" value="" style="line;strokeWidth=1;fillColor=none;align=left;verticalAlign=middle;spacingTop=-1;spacingLeft=3;spacingRight=3;rotatable=0;labelPosition=right;points=[];portConstraint=eastwest;strokeColor=#457B9D;labelBackgroundColor=none;fontColor=#1D3557;" parent="yYLDRi-NIoMHJQzlc312-26" vertex="1">
          <mxGeometry y="182" width="221" height="8" as="geometry" />
        </mxCell>
        <mxCell id="yYLDRi-NIoMHJQzlc312-29" value="+ makeCupOfCoffee(int): void" style="text;strokeColor=none;fillColor=none;align=left;verticalAlign=top;spacingLeft=4;spacingRight=4;overflow=hidden;rotatable=0;points=[[0,0.5],[1,0.5]];portConstraint=eastwest;whiteSpace=wrap;html=1;labelBackgroundColor=none;fontColor=#1D3557;" parent="yYLDRi-NIoMHJQzlc312-26" vertex="1">
          <mxGeometry y="190" width="221" height="26" as="geometry" />
        </mxCell>
        <mxCell id="FhZkEdqBYTwPMLYbSQkq-1" value="+ Start(): void" style="text;strokeColor=none;fillColor=none;align=left;verticalAlign=top;spacingLeft=4;spacingRight=4;overflow=hidden;rotatable=0;points=[[0,0.5],[1,0.5]];portConstraint=eastwest;whiteSpace=wrap;html=1;labelBackgroundColor=none;fontColor=#1D3557;" parent="yYLDRi-NIoMHJQzlc312-26" vertex="1">
          <mxGeometry y="216" width="221" height="26" as="geometry" />
        </mxCell>
        <mxCell id="FhZkEdqBYTwPMLYbSQkq-2" value="+ Stop(): void" style="text;strokeColor=none;fillColor=none;align=left;verticalAlign=top;spacingLeft=4;spacingRight=4;overflow=hidden;rotatable=0;points=[[0,0.5],[1,0.5]];portConstraint=eastwest;whiteSpace=wrap;html=1;labelBackgroundColor=none;fontColor=#1D3557;" parent="yYLDRi-NIoMHJQzlc312-26" vertex="1">
          <mxGeometry y="242" width="221" height="26" as="geometry" />
        </mxCell>
        <mxCell id="KnSmM1IW0QGNPEkn29na-2" value="+ getCoffeine(double): void" style="text;strokeColor=none;fillColor=none;align=left;verticalAlign=top;spacingLeft=4;spacingRight=4;overflow=hidden;rotatable=0;points=[[0,0.5],[1,0.5]];portConstraint=eastwest;whiteSpace=wrap;html=1;labelBackgroundColor=none;fontColor=#1D3557;" parent="yYLDRi-NIoMHJQzlc312-26" vertex="1">
          <mxGeometry y="268" width="221" height="26" as="geometry" />
        </mxCell>
        <mxCell id="KnSmM1IW0QGNPEkn29na-3" value="+ getState(): void" style="text;strokeColor=none;fillColor=none;align=left;verticalAlign=top;spacingLeft=4;spacingRight=4;overflow=hidden;rotatable=0;points=[[0,0.5],[1,0.5]];portConstraint=eastwest;whiteSpace=wrap;html=1;labelBackgroundColor=none;fontColor=#1D3557;" parent="yYLDRi-NIoMHJQzlc312-26" vertex="1">
          <mxGeometry y="294" width="221" height="26" as="geometry" />
        </mxCell>
        <mxCell id="KnSmM1IW0QGNPEkn29na-12" value="FileLogger" style="swimlane;fontStyle=1;align=center;verticalAlign=top;childLayout=stackLayout;horizontal=1;startSize=26;horizontalStack=0;resizeParent=1;resizeParentMax=0;resizeLast=0;collapsible=1;marginBottom=0;whiteSpace=wrap;html=1;fillColor=#b0e3e6;strokeColor=#0e8088;" parent="1" vertex="1">
          <mxGeometry x="793" y="219" width="117" height="60" as="geometry" />
        </mxCell>
        <mxCell id="KnSmM1IW0QGNPEkn29na-14" value="" style="line;strokeWidth=1;fillColor=none;align=left;verticalAlign=middle;spacingTop=-1;spacingLeft=3;spacingRight=3;rotatable=0;labelPosition=right;points=[];portConstraint=eastwest;strokeColor=inherit;" parent="KnSmM1IW0QGNPEkn29na-12" vertex="1">
          <mxGeometry y="26" width="117" height="8" as="geometry" />
        </mxCell>
        <mxCell id="KnSmM1IW0QGNPEkn29na-15" value="&lt;font style=&quot;font-size: 10px;&quot;&gt;+ log(String): void&lt;/font&gt;" style="text;strokeColor=none;fillColor=none;align=left;verticalAlign=top;spacingLeft=4;spacingRight=4;overflow=hidden;rotatable=0;points=[[0,0.5],[1,0.5]];portConstraint=eastwest;whiteSpace=wrap;html=1;" parent="KnSmM1IW0QGNPEkn29na-12" vertex="1">
          <mxGeometry y="34" width="117" height="26" as="geometry" />
        </mxCell>
        <mxCell id="KnSmM1IW0QGNPEkn29na-16" value="" style="endArrow=block;dashed=1;endFill=0;endSize=12;html=1;rounded=0;" parent="1" source="yYLDRi-NIoMHJQzlc312-25" target="KnSmM1IW0QGNPEkn29na-12" edge="1">
          <mxGeometry width="160" relative="1" as="geometry">
            <mxPoint x="635" y="363" as="sourcePoint" />
            <mxPoint x="795" y="363" as="targetPoint" />
          </mxGeometry>
        </mxCell>
        <mxCell id="KnSmM1IW0QGNPEkn29na-17" value="Extends" style="endArrow=block;endSize=16;endFill=0;html=1;rounded=0;" parent="1" source="yYLDRi-NIoMHJQzlc312-1" target="yYLDRi-NIoMHJQzlc312-11" edge="1">
          <mxGeometry width="160" relative="1" as="geometry">
            <mxPoint x="635" y="363" as="sourcePoint" />
            <mxPoint x="795" y="363" as="targetPoint" />
          </mxGeometry>
        </mxCell>
        <mxCell id="KnSmM1IW0QGNPEkn29na-18" value="Extends" style="endArrow=block;endSize=16;endFill=0;html=1;rounded=0;" parent="1" source="yYLDRi-NIoMHJQzlc312-1" target="yYLDRi-NIoMHJQzlc312-7" edge="1">
          <mxGeometry width="160" relative="1" as="geometry">
            <mxPoint x="635" y="363" as="sourcePoint" />
            <mxPoint x="795" y="363" as="targetPoint" />
          </mxGeometry>
        </mxCell>
        <mxCell id="KnSmM1IW0QGNPEkn29na-19" value="1" style="endArrow=open;html=1;endSize=12;startArrow=diamondThin;startSize=14;startFill=0;edgeStyle=orthogonalEdgeStyle;align=left;verticalAlign=bottom;rounded=0;" parent="1" source="yYLDRi-NIoMHJQzlc312-26" target="KnSmM1IW0QGNPEkn29na-12" edge="1">
          <mxGeometry x="-1" y="3" relative="1" as="geometry">
            <mxPoint x="685" y="365" as="sourcePoint" />
            <mxPoint x="845" y="365" as="targetPoint" />
          </mxGeometry>
        </mxCell>
        <mxCell id="KnSmM1IW0QGNPEkn29na-20" value="1" style="endArrow=open;html=1;endSize=12;startArrow=diamondThin;startSize=14;startFill=0;edgeStyle=orthogonalEdgeStyle;align=left;verticalAlign=bottom;rounded=0;" parent="1" source="yYLDRi-NIoMHJQzlc312-26" target="yYLDRi-NIoMHJQzlc312-15" edge="1">
          <mxGeometry x="-1" y="3" relative="1" as="geometry">
            <mxPoint x="635" y="363" as="sourcePoint" />
            <mxPoint x="795" y="363" as="targetPoint" />
          </mxGeometry>
        </mxCell>
        <mxCell id="KnSmM1IW0QGNPEkn29na-21" value="1" style="endArrow=open;html=1;endSize=12;startArrow=diamondThin;startSize=14;startFill=0;edgeStyle=orthogonalEdgeStyle;align=left;verticalAlign=bottom;rounded=0;" parent="1" source="yYLDRi-NIoMHJQzlc312-26" target="yYLDRi-NIoMHJQzlc312-21" edge="1">
          <mxGeometry x="-1" y="3" relative="1" as="geometry">
            <mxPoint x="635" y="363" as="sourcePoint" />
            <mxPoint x="795" y="363" as="targetPoint" />
          </mxGeometry>
        </mxCell>
        <mxCell id="KnSmM1IW0QGNPEkn29na-23" value="1" style="endArrow=open;html=1;endSize=12;startArrow=diamondThin;startSize=14;startFill=0;edgeStyle=orthogonalEdgeStyle;align=left;verticalAlign=bottom;rounded=0;" parent="1" source="yYLDRi-NIoMHJQzlc312-26" target="yYLDRi-NIoMHJQzlc312-1" edge="1">
          <mxGeometry x="-1" y="3" relative="1" as="geometry">
            <mxPoint x="635" y="363" as="sourcePoint" />
            <mxPoint x="795" y="363" as="targetPoint" />
          </mxGeometry>
        </mxCell>
      </root>
    </mxGraphModel>
  </diagram>
</mxfile>
